<svg xmlns="http://www.w3.org/2000/svg" xmlns:xlink="http://www.w3.org/1999/xlink" viewBox="0 0 954.95 442.32"><defs><style>.cls-1{fill:url(#Ny_övertoningsruta_1);}.cls-2{fill:url(#Ny_övertoningsruta_1-2);}.cls-3{fill:url(#Ny_övertoningsruta_1-3);}.cls-4{fill:url(#Ny_övertoningsruta_1-4);}.cls-5{font-size:80px;fill:#662483;font-family:Futura-Medium, Futura;font-weight:500;}.cls-6{letter-spacing:0.02em;}.cls-7{letter-spacing:-0.04em;}</style><linearGradient id="Ny_övertoningsruta_1" x1="313.18" y1="171.02" x2="135.44" y2="424.29" gradientUnits="userSpaceOnUse"><stop offset="0" stop-color="#742578"/><stop offset="1" stop-color="#302152"/></linearGradient><linearGradient id="Ny_övertoningsruta_1-2" x1="216.43" y1="103.17" x2="16.72" y2="387.76" xlink:href="#Ny_övertoningsruta_1"/><linearGradient id="Ny_övertoningsruta_1-3" x1="290.56" y1="155.2" x2="90.85" y2="439.79" xlink:href="#Ny_övertoningsruta_1"/><linearGradient id="Ny_övertoningsruta_1-4" x1="364.7" y1="207.24" x2="164.99" y2="491.82" xlink:href="#Ny_övertoningsruta_1"/></defs><g id="Lager_2" data-name="Lager 2"><g id="Layer_1" data-name="Layer 1"><path class="cls-1" d="M429.75,442.32a16.68,16.68,0,0,1-12.67-5.83c-5.92-6.93-10.68-12.87-14.48-17.64C392.06,405.67,389.3,402.69,384,401c-8.23-2.55-24.39-2.51-53.74-2.41-6.08,0-215.75,0-215.75,0A114.65,114.65,0,0,1,0,284.14V203.56A115,115,0,0,1,80.86,94.11,114.71,114.71,0,0,1,193.56,0H389.28A114.65,114.65,0,0,1,503.8,114.53v123a16.67,16.67,0,0,1-33.33,0v-123a81.28,81.28,0,0,0-81.19-81.2H193.56a81.28,81.28,0,0,0-81.2,81.2v80.58a81.29,81.29,0,0,0,81.2,81.2H429.75A16.66,16.66,0,0,1,446.41,293V425.66a16.7,16.7,0,0,1-16.66,16.66Zm-86.13-77.05c40.23,0,54.32,1.29,69.46,15.3V309.63H193.56A114.65,114.65,0,0,1,79,195.11V130.57a81.77,81.77,0,0,0-45.71,73v80.58a81.3,81.3,0,0,0,81.2,81.21Z"/><path class="cls-2" d="M198.87,154.88a18.73,18.73,0,1,0-18.73,18.72A18.74,18.74,0,0,0,198.87,154.88Z"/><path class="cls-3" d="M309.52,154.88A18.73,18.73,0,1,0,290.8,173.6,18.73,18.73,0,0,0,309.52,154.88Z"/><path class="cls-4" d="M420.17,154.88a18.73,18.73,0,1,0-18.72,18.72A18.73,18.73,0,0,0,420.17,154.88Z"/><text class="cls-5" transform="translate(466.39 343.55)"><tspan class="cls-6">C</tspan><tspan x="57.73" y="0">H</tspan><tspan class="cls-7" x="116.41" y="0">A</tspan><tspan x="172.3" y="0">TTERAPP</tspan></text></g></g></svg>